<svg viewBox="0 0 36 36" xmlns="http://www.w3.org/2000/svg" data-name="Layer 1"><path d="m28.67 34h-21.34a5.33 5.33 0 0 1 -5.33-5.33v-21.34a5.33 5.33 0 0 1 5.33-5.33h21.34a5.33 5.33 0 0 1 5.33 5.33v21.34a5.33 5.33 0 0 1 -5.33 5.33zm-21.34-29.87a3.2 3.2 0 0 0 -3.2 3.2v21.34a3.2 3.2 0 0 0 3.2 3.2h21.34a3.2 3.2 0 0 0 3.2-3.2v-21.34a3.2 3.2 0 0 0 -3.2-3.2z"></path><path d="m8.4 7.33a1.07 1.07 0 1 1 -1.07 1.07 1.07 1.07 0 0 1 1.07-1.07z" fill-rule="evenodd"></path><path d="m12.67 7.33a1.07 1.07 0 1 1 -1.07 1.07 1.07 1.07 0 0 1 1.07-1.07z" fill-rule="evenodd"></path><path d="m14 25.09-3.2-3.73a1.06 1.06 0 0 1 0-1.39l3.2-3.73 1.62 1.39-2.6 3 2.6 3z"></path><path d="m22 25.09-1.62-1.39 2.6-3-2.6-3 1.62-1.46 3.21 3.76a1.06 1.06 0 0 1 0 1.39z"></path></svg>